<svg xmlns="http://www.w3.org/2000/svg" direction="ltr" width="184" height="184" viewBox="-32 -32 184 184" stroke-linecap="round" stroke-linejoin="round" style="background-color: rgb(249, 250, 251);" encoding="UTF-8&quot;"><defs/><g transform="matrix(1, 0, 0, 1, 0, 0)" opacity="1"><g><rect width="120" height="120" rx="4" fill="white" stroke="black" stroke-width="2"/><text x="5" y="28" style="font-family: sans-serif; font-size: 10px; fill: #504758;" dominant-baseline="middle">Storage Bucket</text><clipPath id="clip-round-corners-4x6g5qj78"><rect x="0" y="0" width="64" height="64" rx="4" ry="4"/></clipPath><svg xmlns="http://www.w3.org/2000/svg" width="58" height="58" viewBox="0 0 24 24" x="31" y="48" clip-path="url(#clip-round-corners-4x6g5qj78)"><defs><style>.cls-1{fill:#aecbfa;}.cls-2{fill:#669df6;}.cls-3{fill:#4285f4;}.cls-4{fill:#fff;}</style></defs><title>Icon_24px_CloudStorage_Color</title><g data-name="Product Icons"><rect class="cls-1" x="2" y="4" width="20" height="7"/><rect class="cls-2" x="20" y="4" width="2" height="7"/><polygon class="cls-3" points="22 4 20 4 20 11 22 4"/><rect class="cls-2" x="2" y="4" width="2" height="7"/><rect class="cls-4" x="6" y="7" width="6" height="1"/><rect class="cls-4" x="15" y="6" width="3" height="3" rx="1.5"/><rect class="cls-1" x="2" y="13" width="20" height="7"/><rect class="cls-2" x="20" y="13" width="2" height="7"/><polygon class="cls-3" points="22 13 20 13 20 20 22 13"/><rect class="cls-2" x="2" y="13" width="2" height="7"/><rect class="cls-4" x="6" y="16" width="6" height="1"/><rect class="cls-4" x="15" y="15" width="3" height="3" rx="1.5"/></g></svg><rect x="91" y="5" width="24" height="16" rx="8" ry="8" fill="#37bb65"/><text x="103" y="14" style="font-family: sans-serif; font-size: 12px; fill: black; text-anchor: middle; dominant-baseline: middle;">1</text><text x="5" y="14" style="font-family: sans-serif; font-size: 14px; fill: black;" dominant-baseline="middle">cost_opti...</text></g></g></svg>